<svg xmlns="http://www.w3.org/2000/svg" width="480" height="270" fill="none"><path fill="#F2F2F2" d="M0 0h480v270H0z"/><g clip-path="url(#a)"><path fill="#F8F8F8" stroke="#E1E1E1" stroke-width="4" d="m344.197 90.305-135.23-36.234c-9.602-2.573-19.472 3.125-22.045 12.728l-24.847 92.728c-2.573 9.603 3.126 19.473 12.728 22.046l135.23 36.234c9.602 2.573 19.472-3.125 22.045-12.727l24.847-92.729c2.573-9.603-3.126-19.473-12.728-22.046z"/><path fill="#F8F8F8" stroke="#E1E1E1" stroke-width="4" d="M300.5 69.939h-140c-9.941 0-18 8.059-18 18v96c0 9.941 8.059 18 18 18h140c9.941 0 18-8.059 18-18v-96c0-9.941-8.059-18-18-18z"/><path fill="#F3F3F3" stroke="#E9E9E9" stroke-width="4" d="M277.164 99.939h-5.328a2.336 2.336 0 0 0-2.336 2.336v21.328a2.336 2.336 0 0 0 2.336 2.336h5.328a2.336 2.336 0 0 0 2.336-2.336v-21.328a2.336 2.336 0 0 0-2.336-2.336z"/><path stroke="#E1E1E1" stroke-linecap="round" stroke-width="4" d="M169.5 169.939h126"/><path fill="#fff" fill-rule="evenodd" d="M197.5 117.939a7.96 7.96 0 0 1-1.385 4.5 9.976 9.976 0 0 1 3.385 7.5 9.95 9.95 0 0 1-1.447 5.183 11.96 11.96 0 0 1 3.447 8.417c0 6.627-5.373 12-12 12s-12-5.373-12-12a11.96 11.96 0 0 1 3.447-8.417 9.95 9.95 0 0 1-1.447-5.183 9.976 9.976 0 0 1 3.385-7.5 8 8 0 1 1 14.615-4.5z" clip-rule="evenodd"/><path fill="#E1E1E1" d="m196.115 122.439-1.652-1.126-.995 1.458 1.323 1.168 1.324-1.5zm1.938 12.683-1.709-1.038-.808 1.331 1.092 1.11 1.425-1.403zm-17.106 0 1.425 1.403 1.092-1.11-.808-1.331-1.709 1.038zm1.938-12.683 1.324 1.5 1.323-1.168-.995-1.458-1.652 1.126zm14.883 1.127a9.965 9.965 0 0 0 1.732-5.627h-4a5.97 5.97 0 0 1-1.037 3.374l3.305 2.253zm3.732 6.373c0-3.584-1.574-6.803-4.061-8.999l-2.648 2.999a7.976 7.976 0 0 1 2.709 6h4zm-1.737 6.222a11.952 11.952 0 0 0 1.737-6.222h-4a7.955 7.955 0 0 1-1.156 4.145l3.419 2.077zm-3.135.364a9.963 9.963 0 0 1 2.872 7.014h4c0-3.825-1.536-7.295-4.021-9.819l-2.851 2.805zm2.872 7.014c0 5.523-4.477 10-10 10v4c7.732 0 14-6.268 14-14h-4zm-10 10c-5.523 0-10-4.477-10-10h-4c0 7.732 6.268 14 14 14v-4zm-10-10a9.963 9.963 0 0 1 2.872-7.014l-2.851-2.805a13.957 13.957 0 0 0-4.021 9.819h4zm-2-13.6c0 2.274.634 4.406 1.737 6.222l3.419-2.077a7.955 7.955 0 0 1-1.156-4.145h-4zm4.061-8.999a11.978 11.978 0 0 0-4.061 8.999h4a7.976 7.976 0 0 1 2.709-6l-2.648-2.999zm-2.061-3.001c0 2.083.639 4.023 1.732 5.627l3.305-2.253a5.97 5.97 0 0 1-1.037-3.374h-4zm10-10c-5.523 0-10 4.477-10 10h4a6 6 0 0 1 6-6v-4zm10 10c0-5.523-4.477-10-10-10v4a6 6 0 0 1 6 6h4z"/><path stroke="#E1E1E1" stroke-linecap="round" stroke-width="4" d="M189.5 145.939v24"/><path fill="#F3F3F3" d="M221.046 169.939h54.908a3.547 3.547 0 0 0 3.546-3.546v-47.091l-31-19.363-31 19.363v47.091a3.547 3.547 0 0 0 3.546 3.546z"/><path fill="#E9E9E9" d="m219.5 122.666 6-4.727v52h-6v-47.273z"/><path stroke="#E1E1E1" stroke-linecap="round" stroke-linejoin="round" stroke-width="4" d="M219.5 123.939v46h60v-46"/><path fill="#fff" stroke="#E1E1E1" stroke-width="4" d="M259.5 153.139a7.2 7.2 0 0 0-7.2-7.2h-5.6a7.2 7.2 0 0 0-7.2 7.2v16.8h20v-16.8z"/><path fill="#fff" stroke="#E1E1E1" stroke-linecap="round" stroke-width="4" d="M249.5 137.939a6 6 0 1 0 0-12 6 6 0 0 0 0 12z"/><path stroke="#E1E1E1" stroke-width="4" d="M219.5 105.939a6 6 0 1 1 0-12 6 6 0 0 1 0 12z"/><path stroke="#E1E1E1" stroke-linecap="round" stroke-width="4" d="M267.5 99.939h14"/><path fill="#fff" stroke="#E1E1E1" stroke-linecap="round" stroke-width="4" d="m245.664 100.79-31.395 23.327a6.86 6.86 0 0 0-2.769 5.507v3.592c0 1.952 2.224 3.07 3.791 1.906l34.209-25.418 34.209 25.418c1.567 1.164 3.791.046 3.791-1.906v-3.592a6.86 6.86 0 0 0-2.769-5.507l-31.395-23.327a6.43 6.43 0 0 0-7.672 0z"/></g><defs><clipPath id="a"><path fill="#fff" d="M119.5 49h241v172h-241z"/></clipPath></defs></svg>